<svg height="512" viewBox="0 0 64 64" width="512" xmlns="http://www.w3.org/2000/svg"><path d="M61.383 2.076a1 1 0 00-1.09.217L50 12.586V5a1 1 0 00-1-1H8c-3.309 0-6 2.691-6 6v46c0 3.309 2.691 6 6 6h41a1 1 0 001-1V33.414l4.678-4.678C59.4 24.014 62 17.736 62 11.059V3a1 1 0 00-.617-.924zM48 60H8c-2.206 0-4-1.794-4-4s1.794-4 4-4h40zm0-10H8a5.97 5.97 0 00-4 1.54V10c0-2.206 1.794-4 4-4h40v8.586L34.293 28.293A.997.997 0 0034 29v8.586l-5.707 5.707 1.414 1.414L35.414 39H44c.266 0 .52-.105.707-.293L48 35.414zm12-38.941a22.851 22.851 0 01-6.736 16.263L43.586 37h-6.172l16.293-16.293-1.414-1.414L36 35.586v-6.172l24-24z"/><path d="M26 29c5.514 0 10-4.486 10-10S31.514 9 26 9s-10 4.486-10 10 4.486 10 10 10zm-4.919-3.704C21.427 22.857 23.491 21 26 21s4.573 1.857 4.919 4.296a7.953 7.953 0 01-9.838 0zM24 17c0-1.103.897-2 2-2s2 .897 2 2-.897 2-2 2-2-.897-2-2zm2-6c4.411 0 8 3.589 8 8a7.947 7.947 0 01-1.443 4.57 6.99 6.99 0 00-3.595-3.906A3.97 3.97 0 0030 17c0-2.206-1.794-4-4-4s-4 1.794-4 4c0 1.027.4 1.955 1.038 2.664a6.99 6.99 0 00-3.595 3.906A7.947 7.947 0 0118 19c0-4.411 3.589-8 8-8zm-9 32h10v2H17zm0-5h13v2H17zm0-5h15v2H17z"/></svg>