<svg height="512" width="512" xmlns="http://www.w3.org/2000/svg"><path d="M471.369 115.987H322.276c-13.663 0-25.763 6.785-33.132 17.155-7.37-10.37-19.47-17.155-33.132-17.155h-82.563L87.942 30.48l-.003-.003-.004-.003L64.511 7.05C59.966 2.504 53.922 0 47.494 0S35.022 2.504 30.477 7.049L7.05 30.477A23.904 23.904 0 000 47.493a23.91 23.91 0 007.049 17.018l23.423 23.424.004.004.004.004 44.101 44.101a40.653 40.653 0 00-8.292 24.575v134.095c0 4.143 3.358 7.5 7.5 7.5s7.5-3.357 7.5-7.5V156.618c0-4.942 1.437-9.728 4.052-13.816l73.694 73.695a7.587 7.587 0 004.571 2.16c.243.024.488.036.732.036h43.748l9.518 9.518a7.477 7.477 0 005.303 2.196l16.54-.025c4.142 0 7.5-3.357 7.5-7.5s-3.358-7.5-7.5-7.5h-13.458l-7.295-7.295v-43.746a7.566 7.566 0 00-2.197-5.306l-28.047-28.047h67.563c14.133 0 25.631 11.498 25.632 25.63v283.254c-6.997-5.705-15.921-9.134-25.632-9.134H81.289V320.713c0-4.143-3.358-7.5-7.5-7.5s-7.5 3.357-7.5 7.5v150.655c0 22.404 18.228 40.632 40.632 40.632h292.324c4.143 0 7.5-3.357 7.5-7.5s-3.357-7.5-7.5-7.5h-102.6l.001-18.132h141.592c4.143 0 7.5-3.357 7.5-7.5s-3.357-7.5-7.5-7.5h-140.47c3.215-10.485 12.985-18.131 24.509-18.131H497v25.631C497 485.502 485.502 497 471.369 497h-42.124c-4.143 0-7.5 3.357-7.5 7.5s3.357 7.5 7.5 7.5h42.124C493.773 512 512 493.773 512 471.368v-314.75c0-22.404-18.227-40.631-40.631-40.631zM17.655 53.903A9.005 9.005 0 0115 47.493c0-2.421.943-4.697 2.656-6.409l23.428-23.429A9.003 9.003 0 0147.494 15c2.421 0 4.698.943 6.411 2.656L72.028 35.78 53.909 53.899l-.005.005-.005.005L35.78 72.028zm146.683 146.684L46.387 82.635l12.821-12.821 117.951 117.952zm39.355 3.106h-21.248l21.248-21.248zm-3.106-39.355l-12.821 12.821L69.815 59.207l12.821-12.82 82.393 82.392.021.021zM281.645 497H106.921c-14.133 0-25.632-11.498-25.632-25.632v-25.631h174.724c11.524 0 21.294 7.646 24.509 18.131h-140.47c-4.142 0-7.5 3.357-7.5 7.5s3.358 7.5 7.5 7.5h141.592V497zM497 430.737H322.276c-9.711 0-18.634 3.429-25.632 9.134l.001-283.254c0-14.133 11.498-25.63 25.631-25.63h149.093c14.133 0 25.631 11.498 25.631 25.631z"/><path d="M371.974 180.685h49.697c4.143 0 7.5-3.357 7.5-7.5s-3.357-7.5-7.5-7.5h-49.697a7.499 7.499 0 00-7.5 7.5 7.5 7.5 0 007.5 7.5zm82.829 34.697H338.842c-4.143 0-7.5 3.357-7.5 7.5s3.357 7.5 7.5 7.5h115.961c4.143 0 7.5-3.357 7.5-7.5s-3.358-7.5-7.5-7.5zm0 33.131H338.842c-4.143 0-7.5 3.357-7.5 7.5s3.357 7.5 7.5 7.5h115.961c4.143 0 7.5-3.357 7.5-7.5s-3.358-7.5-7.5-7.5zm0 33.132H338.842a7.5 7.5 0 00-7.5 7.5c0 4.143 3.357 7.5 7.5 7.5h115.961c4.143 0 7.5-3.357 7.5-7.5s-3.358-7.5-7.5-7.5zm0 33.131H338.842c-4.143 0-7.5 3.357-7.5 7.5s3.357 7.5 7.5 7.5h115.961a7.5 7.5 0 000-15zm0 33.132h-99.395c-4.143 0-7.5 3.357-7.5 7.5s3.357 7.5 7.5 7.5h99.395c4.143 0 7.5-3.357 7.5-7.5s-3.358-7.5-7.5-7.5z"/></svg>