<svg xmlns="http://www.w3.org/2000/svg" viewBox="0 0 512.003 512.003" width="512" height="512"><path d="M67.792 413.056c1.124 4.56 5.208 7.609 9.702 7.609.792 0 1.597-.095 2.401-.292l48.348-11.916a10.001 10.001 0 007.606-9.58c1.272-98.037 1.803-99.306 29.55-165.672l26.802-60.06c2.264-5.037.014-10.956-5.023-13.22-5.039-2.263-10.958-.014-13.22 5.024l-27.011 60.54c-27.912 66.759-29.697 71.032-30.993 165.396L75.11 400.951c-5.364 1.324-8.64 6.742-7.318 12.105zm367.67 78.992c-24.836-2.396-49.702-7.584-71.911-15.003-5.237-1.747-10.902 1.08-12.653 6.317-1.749 5.238 1.079 10.903 6.317 12.653 23.618 7.889 50.011 13.401 76.325 15.94.327.031.651.047.973.047 5.09 0 9.443-3.87 9.942-9.04.53-5.497-3.496-10.384-8.993-10.914z"/><path d="M383.761 408.456l48.347 11.917c5.368 1.316 10.781-1.954 12.104-7.316 1.321-5.363-1.954-10.781-7.316-12.104l-40.844-10.066c-1.296-94.364-3.082-98.638-30.993-165.396L305.262 91.977c-7.944-17.684-26.642-21.313-40.202-15.754a30.706 30.706 0 00-9.058 5.752 30.706 30.706 0 00-9.058-5.752c-13.56-5.56-32.258-1.931-40.203 15.754-2.263 5.038-.014 10.956 5.024 13.22s10.957.014 13.22-5.024c3.402-7.572 10.886-6.875 14.37-5.444 3.125 1.281 7.899 4.693 4.756 13.141l-28.176 75.732c-11.406 2.043-21.021 11.205-24.314 24.11-4.714 18.466-8.971 36.251-13.087 53.451a6732.534 6732.534 0 01-6.315 26.233c-1.307 5.366 1.984 10.775 7.351 12.081 5.368 1.311 10.775-1.984 12.082-7.351a6771.311 6771.311 0 006.333-26.309c4.099-17.128 8.338-34.84 13.015-53.16 1.314-5.149 5.101-10.039 10.613-9.441.099.015.197.026.296.037 5.078.717 8.672 5.395 8.036 10.502-.643 5.16-1.736 15.223-2.793 24.954-1.049 9.653-2.133 19.637-2.757 24.639-3.424 27.461-2.409 30.757 6.569 48.295 1.706 3.332 3.639 7.108 5.979 11.976 10.388 21.226 8.64 50.32-5.499 91.563-15.083 43.995-90.87 70.686-154.903 76.866-5.497.531-9.523 5.418-8.993 10.915.499 5.171 4.852 9.04 9.942 9.04.321 0 .646-.016.973-.047 72.558-7.004 153.85-37.638 171.9-90.288a325.468 325.468 0 005.639-18.085 325.695 325.695 0 005.638 18.085c4.021 11.725 11.383 22.856 21.883 33.084a9.96 9.96 0 006.977 2.837 9.973 9.973 0 007.164-3.022c3.854-3.956 3.771-10.287-.186-14.141-8.232-8.02-13.925-16.513-16.918-25.244-14.14-41.243-15.887-70.338-5.468-91.626 2.31-4.805 4.242-8.581 5.948-11.913 8.978-17.537 9.992-20.834 6.568-48.295-.625-5.01-1.711-15.012-2.762-24.683-1.055-9.714-2.146-19.758-2.788-24.91-.309-2.478.378-4.943 1.935-6.942 1.524-1.959 3.688-3.219 6.105-3.56.097-.011.193-.023.29-.036 5.514-.604 9.301 4.29 10.615 9.441 4.671 18.297 8.905 35.987 13 53.095 2.095 8.753 4.189 17.505 6.35 26.374 1.307 5.366 6.716 8.654 12.082 7.35 5.366-1.307 8.656-6.716 7.35-12.082a7000.29 7000.29 0 01-6.331-26.297c-4.111-17.18-8.363-34.944-13.071-53.386-3.295-12.908-12.906-22.07-24.314-24.111l-28.176-75.732c-3.143-8.447 1.631-11.859 4.756-13.141 3.483-1.43 10.967-2.129 14.369 5.444l59.588 133.033c27.747 66.366 28.277 67.635 29.55 165.672a9.997 9.997 0 007.605 9.579zM276.153 187.428c-9.598 5.841-15.419 16.95-13.94 28.802.622 4.994 1.704 14.959 2.751 24.595 1.059 9.749 2.154 19.831 2.799 24.998 2.793 22.408 2.793 22.408-4.526 36.707-1.672 3.267-3.752 7.331-6.14 12.297a80.35 80.35 0 00-1.095 2.339 77.196 77.196 0 00-1.065-2.275c-2.418-5.029-4.499-9.095-6.171-12.36-7.319-14.299-7.319-14.299-4.525-36.707.643-5.16 1.736-15.223 2.793-24.954 1.049-9.653 2.133-19.637 2.757-24.639 1.477-11.852-4.344-22.961-13.94-28.802l20.152-54.163 20.15 54.162zM256.001 52.662c5.523 0 10-4.478 10-10V10c0-5.522-4.478-10-10-10s-10 4.478-10 10v32.662c0 5.523 4.478 10 10 10zm-98.785 19.15a9.995 9.995 0 0013.66 3.66c4.783-2.761 6.422-8.877 3.66-13.66l-16.331-28.286c-2.762-4.783-8.878-6.423-13.66-3.66-4.783 2.761-6.422 8.877-3.66 13.66l16.331 28.286zm-90.602 53.305L94.9 141.448a9.995 9.995 0 0013.66-3.66c2.762-4.783 1.123-10.898-3.66-13.66l-28.286-16.331c-4.781-2.76-10.898-1.123-13.66 3.66s-1.123 10.898 3.66 13.66zm19.136 97.796c0-5.522-4.477-10-10-10H43.089c-5.523 0-10 4.478-10 10s4.477 10 10 10H75.75c5.523 0 10-4.477 10-10zM341.127 75.472a9.997 9.997 0 0013.66-3.66l16.331-28.286c2.762-4.783 1.123-10.898-3.66-13.66-4.784-2.763-10.899-1.122-13.66 3.66l-16.331 28.286c-2.762 4.783-1.123 10.898 3.66 13.66zm70.986 67.318a9.954 9.954 0 004.99-1.342l28.286-16.331c4.783-2.762 6.422-8.877 3.66-13.66-2.762-4.781-8.877-6.421-13.66-3.66l-28.286 16.331c-4.783 2.762-6.422 8.877-3.66 13.66a9.997 9.997 0 008.67 5.002zm56.801 70.123h-32.661c-5.522 0-10 4.478-10 10s4.478 10 10 10h32.661c5.522 0 10-4.478 10-10s-4.477-10-10-10z"/><path d="M194.997 141.509a9.998 9.998 0 0013.416-4.472l.003-.007c2.47-4.939.466-10.942-4.474-13.412-4.938-2.473-10.948-.465-13.418 4.476-2.469 4.938-.466 10.945 4.473 13.415zm132.267 320.14l-.007-.003c-5.074-2.177-10.951.177-13.127 5.254-2.176 5.076.179 10.956 5.255 13.132a9.961 9.961 0 003.935.812 10.003 10.003 0 003.944-19.195z"/></svg>