<svg height="640" viewBox="0 0 480 480" width="640" xmlns="http://www.w3.org/2000/svg"><path d="M240 0H136a8 8 0 00-8 8v56H8a8 8 0 00-8 8v400a8 8 0 008 8h232a8 8 0 008-8V8a8 8 0 00-8-8zm-8 416h-88v-16h88zM16 120h112v240H16zm216-32h-88V64h88zM16 376h112v24H16zm128 8V104h88v280zm88-368v32h-88V16zM128 80v24H16V80zM16 416h112v48H16zm128 48v-32h88v32zm0 0"/><path d="M479.742 437.984l-96-368a7.99 7.99 0 00-9.805-5.71l-120 32a7.996 7.996 0 00-5.68 9.742l96 368a7.978 7.978 0 009.805 5.695l120-32a7.999 7.999 0 005.68-9.727zM278.496 158.543l104.543-27.871 3.762 14.398-104.535 27.914zm112.344 2.05l46.398 177.981-104.504 27.883-46.398-177.992zm50.472 193.47l8.192 31.394-104.543 27.871-8.16-31.383zM370.29 81.8l8.71 33.399-104.543 27.863-8.703-33.382zm-12.578 380.398L349 428.801l104.543-27.88 8.703 33.384zM104 144H40a8 8 0 00-8 8v64a8 8 0 008 8h64a8 8 0 008-8v-64a8 8 0 00-8-8zm-8 64H48v-48h48zm0 0"/></svg>