<svg height="512" width="512" xmlns="http://www.w3.org/2000/svg"><path d="M402.82 106c0-34.796-22.77-90-83.87-90-25.104 0-46.221 11.835-62.95 35.229C239.271 27.835 218.153 16 193.05 16c-61.101 0-83.87 55.204-83.87 90 0 59.993 46.822 97.52 110.787 152.217 9.399 8.036 19.118 16.347 29.48 25.337 1.88 1.631 4.216 2.446 6.553 2.446s4.673-.815 6.553-2.446c10.362-8.99 20.081-17.301 29.48-25.337C358.999 200.954 402.82 164.725 402.82 106zM256 262.776c-7.991-6.896-15.612-13.413-23.035-19.761C166.043 185.792 129.18 154.27 129.18 106c0-32.743 21.421-70 63.87-70 22.153 0 39.874 12.72 54.176 38.886a10 10 0 0017.548 0C279.076 48.72 296.797 36 318.95 36c41.856 0 63.87 36.704 63.87 70 0 48.27-36.863 79.792-103.785 137.016A6547.712 6547.712 0 00256 262.776zM71.858 408.114L120 432.181V486c0 5.522 4.478 10 10 10h106c5.522 0 10-4.478 10-10V355.45c0-30.638-22.983-56.045-53.385-59.093l-.818-.088c-17.597-1.764-48.755-13.8-61.058-26.102l-22.458-22.449C100.724 240.162 90.681 236 80 236v-80c0-22.056-17.944-40-40-40S0 133.944 0 156v135.84c0 49.214 27.798 94.239 71.858 116.274zM20 156c0-11.028 8.972-20 20-20s20 8.972 20 20v85.361c-12.196 7.052-20 20.2-20 34.639 0 10.681 4.162 20.724 11.719 28.28l51.21 51.22c3.904 3.906 10.236 3.906 14.142.001 3.905-3.904 3.906-10.236.001-14.142l-51.21-51.221A19.859 19.859 0 0160 276c0-8.464 5.357-16.044 13.332-18.861a.008.008 0 00.004-.002l.007-.002c6.898-2.448 15.08-.99 20.797 4.728l22.458 22.449c23.186 23.186 73.843 31.91 73.944 31.938a39.27 39.27 0 0135.457 39.2V476h-86v-50a10 10 0 00-5.528-8.944l-53.669-26.83C43.299 371.469 20 333.77 20 291.84z"/><circle cx="459" cy="384" r="10"/><path d="M472 116c-22.056 0-40 17.944-40 40v80c-10.681 0-20.724 4.162-28.279 11.718l-22.462 22.451c-12.301 12.301-43.459 24.337-61.134 26.108l-.662.072C288.983 299.405 266 324.813 266 355.45V486c0 5.522 4.478 10 10 10h106c5.522 0 10-4.478 10-10v-53.819l32.73-16.362c4.939-2.47 6.942-8.476 4.473-13.416-2.47-4.939-8.477-6.944-13.416-4.473l-38.259 19.126A10 10 0 00372 426v50h-86V355.45c0-20.321 15.243-37.174 35.535-39.208l.662-.072c21.691-2.175 57.606-16.261 73.202-31.857l22.462-22.451c5.733-5.735 13.931-7.162 20.795-4.727l.007.002.004.002C446.643 259.956 452 267.536 452 276a19.87 19.87 0 01-5.861 14.14l-51.21 51.22c-3.905 3.905-3.904 10.237.001 14.142 3.903 3.905 10.237 3.905 14.142-.001l51.21-51.219C467.838 296.724 472 286.681 472 276c0-14.439-7.804-27.587-20-34.639V156c0-11.028 8.972-20 20-20s20 8.972 20 20v135.84c0 18.296-4.617 36.46-13.353 52.528-2.639 4.853-.844 10.924 4.009 13.562 4.851 2.638 10.925.845 13.562-4.009C506.543 334.93 512 313.463 512 291.84V156c0-22.056-17.944-40-40-40z"/></svg>