<svg height="512" viewBox="0 0 512.008 512.008" width="512" xmlns="http://www.w3.org/2000/svg"><path d="M383.193 177.728a7.5 7.5 0 00-5.279-9.2l-179.431-48.59a7.501 7.501 0 00-9.46 7.239v169.5c0 4.142 3.357 7.5 7.5 7.5s7.5-3.358 7.5-7.5V136.979l169.971 46.028a7.501 7.501 0 009.199-5.279z"/><path d="M196.523 321.858a7.5 7.5 0 00-7.5 7.5v11.75c0 38.052-30.958 69.01-69.01 69.01-18.718 0-36.236-7.37-49.33-20.752-13.088-13.377-20.071-31.064-19.662-49.804.798-36.423 29.937-66.033 66.337-67.41 12.143-.459 24.192 2.281 34.857 7.924a7.498 7.498 0 0011.008-6.629V38.128c0-7.282 3.323-13.985 9.119-18.391 5.798-4.408 13.147-5.819 20.163-3.873l38.8 10.78a7.5 7.5 0 104.015-14.452L196.518 1.411c-11.573-3.21-23.694-.883-33.255 6.386-9.559 7.267-15.04 18.323-15.04 30.332v223.85a84.29 84.29 0 00-31.433-4.814c-44.317 1.676-79.794 37.726-80.766 82.071-.498 22.807 8.003 44.336 23.937 60.622 15.938 16.29 37.266 25.262 60.052 25.262 46.323 0 84.01-37.687 84.01-84.01v-11.75a7.5 7.5 0 00-7.5-7.502zM448.091 71.301l-180.09-50.03a7.495 7.495 0 00-9.234 5.219 7.502 7.502 0 005.219 9.234l180.091 50.03c9.966 2.768 16.927 11.919 16.927 22.253v319.99c0 38.052-30.958 69.01-69.01 69.01-18.721 0-36.24-7.369-49.332-20.75-13.088-13.376-20.069-31.064-19.66-49.808.788-36.431 29.921-66.04 66.326-67.407 12.134-.459 24.19 2.278 34.862 7.917a7.499 7.499 0 0011.004-6.632v-170.55a7.5 7.5 0 00-5.539-7.239l-19.051-5.16a7.5 7.5 0 00-3.922 14.478l13.512 3.66v153.347a84.315 84.315 0 00-31.432-4.811c-44.325 1.665-79.798 37.715-80.757 82.07-.498 22.81 8.002 44.34 23.935 60.624 15.937 16.29 37.265 25.26 60.054 25.26 46.323 0 84.01-37.686 84.01-84.01v-319.99c0-17.046-11.479-32.14-27.913-36.705z"/></svg>