<svg height="512" viewBox="0 0 50 60" width="512" xmlns="http://www.w3.org/2000/svg"><path d="M47 0H6a6.006 6.006 0 00-6 6v44a5.21 5.21 0 00.024.586A6.167 6.167 0 006.21 56H10v2a1.977 1.977 0 001.015 1.741c.626.36 1.398.35 2.014-.026L16 57.931l2.971 1.782A2 2 0 0022 58v-2h25a3 3 0 003-3V3a3 3 0 00-3-3zM20 58l-2.972-1.783a2 2 0 00-2.057 0L12 58v-7h8zm2-7h3a1 1 0 000-2H8a1 1 0 000 2h2v3H6.21a4.155 4.155 0 01-4.2-3.624A3.163 3.163 0 012 50a4.016 4.016 0 014-4h37a8.493 8.493 0 000 8H22zm25 3h-1c-.944 0-2-1.711-2-4s1.056-4 2-4h1c.35-.002.695-.094 1-.268V53a1 1 0 01-1 1zm0-10H8v-1a1 1 0 00-2 0v1a5.96 5.96 0 00-4 1.539V6a4 4 0 014-4v1a1 1 0 102 0V2h39a1 1 0 011 1v39a2.7 2.7 0 01-1 2z"/><path d="M7 6a1 1 0 00-1 1v2a1 1 0 102 0V7a1 1 0 00-1-1zm0 6a1 1 0 00-1 1v2a1 1 0 002 0v-2a1 1 0 00-1-1zm0 6a1 1 0 00-1 1v2a1 1 0 002 0v-2a1 1 0 00-1-1zm0 6a1 1 0 00-1 1v2a1 1 0 002 0v-2a1 1 0 00-1-1zm0 6a1 1 0 00-1 1v2a1 1 0 002 0v-2a1 1 0 00-1-1zm0 6a1 1 0 00-1 1v2a1 1 0 002 0v-2a1 1 0 00-1-1zm38.131-15.409A23.506 23.506 0 0039 19.456V15c0-6.075-4.925-11-11-11S17 8.925 17 15v4.456a23.5 23.5 0 00-6.129 1.134 1.466 1.466 0 00-.862 1.186 1.51 1.51 0 00.594 1.37l9.611 7.242c.359.265.77.449 1.208.538l4.914 7.183a2 2 0 003.321.01l4.921-7.193c.437-.09.85-.273 1.209-.538l9.61-7.242c.425-.32.651-.84.594-1.37a1.465 1.465 0 00-.86-1.185zM19 15a9 9 0 0118 0v4.292c-2.644-.186-5.716-.292-9-.292s-6.356.106-9 .292zm8.993 21.99L23.9 31h8.2zm6.592-8.2c-.183.136-.405.21-.633.21h-11.9a1.05 1.05 0 01-.632-.21l-8.842-6.662C14.953 21.53 20.523 21 28 21s13.045.53 15.426 1.128z"/><path d="M29 9a1 1 0 00-1-1c-2.421 0-7 1.463-7 7a1 1 0 002 0c0-4.821 4.487-5 5-5a1 1 0 001-1zM19 32a1 1 0 00-1 1v4a3 3 0 01-3 3h-.5a1.5 1.5 0 010-3h.5a1 1 0 000-2h-.5a3.5 3.5 0 000 7h.5a5.006 5.006 0 005-5v-4a1 1 0 00-1-1zm22.5 3H41a1 1 0 000 2h.5a1.5 1.5 0 010 3H41a3 3 0 01-3-3v-4a1 1 0 00-2 0v4a5.006 5.006 0 005 5h.5a3.5 3.5 0 000-7z"/></svg>