<svg xmlns="http://www.w3.org/2000/svg" width="512" height="512" viewBox="0 0 128 128"><path d="M64 50.25A13.75 13.75 0 1077.75 64 13.765 13.765 0 0064 50.25zm0 24A10.25 10.25 0 1174.25 64 10.261 10.261 0 0164 74.25z"/><path d="M70 62.25A1.75 1.75 0 0068.25 64a4.274 4.274 0 01-2.119 3.676 1.75 1.75 0 101.763 3.024A7.785 7.785 0 0071.75 64 1.75 1.75 0 0070 62.25z"/><path d="M109.23 59.91a7.8 7.8 0 001.954.256 7.751 7.751 0 005.48-13.228c-.127-.126-.262-.24-.4-.357 1.3-4.714 1-8.82-.953-12.206-4.2-7.28-15.229-9.665-30.362-6.652C79.976 13.111 72.392 4.75 64 4.75s-15.975 8.36-20.953 22.974c-15.136-3.015-26.162-.629-30.361 6.65-1.893 3.27-2.225 7.379-1.018 11.94a7.75 7.75 0 007.039 13.515 72.339 72.339 0 003.4 4.177C11.938 75.61 8.489 86.353 12.685 93.625c3.015 5.227 9.541 7.938 18.583 7.938a61.159 61.159 0 0011.777-1.292C48.022 114.887 55.607 123.25 64 123.25c3.792 0 7.532-1.778 10.893-5.124a7.746 7.746 0 008.587-12.571c-.126-.127-.261-.242-.394-.358a75.999 75.999 0 001.874-4.926 61.023 61.023 0 0011.772 1.292c9.041 0 15.568-2.712 18.583-7.938 4.2-7.272.747-18.015-9.42-29.618a72.337 72.337 0 003.335-4.097zm4.958-4.486a4.255 4.255 0 01-6.009 0 4.248 4.248 0 116.01 0zm-1.905-19.3c1.369 2.377 1.633 5.332.809 8.8A7.745 7.745 0 00105.7 57.9c.126.127.261.241.394.358q-1.218 1.586-2.572 3.148A105.745 105.745 0 0089.56 49.245a107.039 107.039 0 00-3.54-18.169c13.188-2.55 22.941-.711 26.263 5.047zM82.589 96.182a100.254 100.254 0 01-14.278-4.641 133.954 133.954 0 0017.375-10.042 100.2 100.2 0 01-3.097 14.683zm-37.178 0a100.179 100.179 0 01-3.1-14.683A134.255 134.255 0 0059.69 91.541a100.265 100.265 0 01-14.279 4.641zm0-64.364a100.213 100.213 0 0114.278 4.641 135.519 135.519 0 00-17.38 10.047 100.151 100.151 0 013.102-14.688zM38 74.034A98.792 98.792 0 0126.838 64 98.907 98.907 0 0138 53.966a133.757 133.757 0 000 20.068zm14.567 9.78a128.955 128.955 0 01-10.807-6.977c-.418-4.191-.638-8.5-.638-12.837s.22-8.645.638-12.837a128.896 128.896 0 0110.807-6.977 131.248 131.248 0 0111.434-5.878 131.41 131.41 0 0111.436 5.878 128.955 128.955 0 0110.807 6.977c.418 4.191.638 8.5.638 12.837s-.22 8.645-.638 12.837a128.896 128.896 0 01-10.807 6.977 131.248 131.248 0 01-11.434 5.878 131.158 131.158 0 01-11.438-5.878zm30.024-52a100.179 100.179 0 013.1 14.683 136.804 136.804 0 00-8.5-5.347 138.105 138.105 0 00-8.881-4.691 100.265 100.265 0 0114.279-4.641zM90 53.966A98.792 98.792 0 01101.162 64 98.907 98.907 0 0190 74.034a133.757 133.757 0 000-20.068zM64 8.25c6.638 0 13.113 7.529 17.515 20.225a107.329 107.329 0 00-17.516 6 107.245 107.245 0 00-17.514-6C50.888 15.778 57.362 8.25 64 8.25zM13.429 55.424a4.256 4.256 0 113.006 1.242 4.219 4.219 0 01-3.007-1.242zm8.485-8.486a7.75 7.75 0 00-7.023-2.109c-.808-3.426-.538-6.35.825-8.7 3.323-5.761 13.076-7.6 26.264-5.049a107.109 107.109 0 00-3.541 18.17A105.667 105.667 0 0024.476 61.4q-1.461-1.686-2.73-3.352c.055-.052.114-.1.168-.153a7.757 7.757 0 000-10.96zm-6.2 44.937c-3.314-5.752-.032-15.121 8.767-25.275A105.714 105.714 0 0038.44 78.755a107.039 107.039 0 003.54 18.169c-13.189 2.548-22.942.71-26.264-5.049zm65.291 22.165a4.257 4.257 0 111.242-3.006 4.256 4.256 0 01-1.242 3.006zm-3-10.753a7.747 7.747 0 00-5.934 12.728c-2.6 2.477-5.308 3.735-8.066 3.735-6.638 0-13.113-7.529-17.515-20.225a107.329 107.329 0 0017.516-6 107.259 107.259 0 0017.518 6c-.49 1.405-1 2.75-1.534 4.025a7.773 7.773 0 00-1.99-.263zm34.284-11.412c-3.323 5.76-13.076 7.6-26.264 5.049a107.109 107.109 0 003.541-18.17A105.662 105.662 0 00103.519 66.6c8.799 10.154 12.081 19.523 8.765 25.275z"/></svg>